<?xml version="1.0" standalone="no"?>
<!DOCTYPE svg PUBLIC "-//W3C//DTD SVG 20010904//EN"
 "http://www.w3.org/TR/2001/REC-SVG-20010904/DTD/svg10.dtd">
<svg version="1.0" xmlns="http://www.w3.org/2000/svg"
 width="657.000000pt" height="545.000000pt" viewBox="0 0 657.000000 545.000000"
 preserveAspectRatio="xMidYMid meet">
<metadata>
Created by potrace 1.16, written by Peter Selinger 2001-2019
</metadata>
<circle cx="328.5" cy="272.5" r="262.5" fill="#ffffff"/>

<g transform="translate(0.000000,545.000000) scale(0.100000,-0.100000)"
fill="#000000" stroke="none">
<path d="M2360 4630 c-25 -4 -64 -13 -87 -19 l-43 -12 -2 -162 c-3 -153 -4
-162 -23 -165 -47 -7 -213 -66 -290 -103 -46 -21 -90 -39 -98 -39 -8 0 -58 51
-111 114 -73 86 -102 113 -114 108 -58 -21 -224 -137 -276 -191 l-29 -30 83
-136 83 -137 -55 -56 c-72 -75 -135 -153 -187 -229 -23 -35 -45 -63 -49 -63
-4 0 -32 9 -62 21 -30 11 -93 33 -140 49 l-85 30 -22 -28 c-35 -42 -78 -129
-112 -225 -17 -49 -31 -92 -31 -97 0 -8 35 -29 210 -123 30 -16 58 -31 62 -34
4 -2 1 -25 -7 -51 -24 -83 -45 -205 -53 -302 l-7 -94 -65 -13 c-36 -7 -101
-20 -145 -29 -44 -9 -86 -18 -94 -20 -19 -6 -10 -209 14 -311 l16 -73 162 -2
161 -3 22 -75 c33 -111 61 -185 100 -261 19 -38 34 -72 34 -77 0 -4 -52 -52
-115 -105 -63 -54 -115 -103 -115 -109 0 -38 181 -291 218 -305 8 -4 22 -1 31
5 9 7 25 17 36 22 11 6 62 37 114 69 l94 60 85 -79 c46 -44 97 -85 113 -92 16
-7 29 -16 29 -20 0 -4 14 -16 30 -28 l30 -22 -20 34 c-18 31 -18 36 -4 56 21
30 69 30 85 0 10 -19 8 -25 -17 -45 -24 -19 -26 -25 -14 -33 10 -6 21 -3 38
13 l24 22 -4 -25 c-1 -13 -12 -29 -24 -35 -16 -8 -19 -14 -11 -27 8 -12 -2
-50 -37 -153 -26 -75 -45 -143 -42 -150 11 -31 276 -154 331 -154 15 -1 37 30
94 135 64 117 77 135 95 131 139 -32 218 -47 279 -53 l73 -6 22 148 c13 82 25
173 29 202 l6 52 -29 0 c-111 0 -346 65 -492 136 -73 35 -97 43 -107 34 -21
-17 12 -59 45 -60 24 -1 24 -1 6 -15 -11 -8 -23 -15 -26 -15 -18 0 -82 76 -87
103 -6 31 -6 32 14 14 18 -15 33 -14 33 3 0 3 -28 24 -62 47 -35 23 -101 78
-147 124 -192 189 -316 416 -372 682 -31 145 -31 371 0 514 85 402 343 738
706 920 71 36 222 87 320 108 101 22 312 30 420 16 263 -35 536 -160 717 -329
l47 -44 143 128 c79 70 147 131 153 136 5 5 -13 28 -45 58 -54 49 -232 189
-264 207 -15 8 -11 26 34 156 28 81 48 152 45 157 -17 28 -249 136 -314 146
l-38 6 -73 -133 c-40 -74 -74 -135 -75 -136 -1 -2 -55 9 -121 22 -65 14 -159
28 -209 32 -49 3 -97 9 -106 14 -11 5 -24 53 -43 158 l-28 151 -85 0 c-72 0
-84 -2 -79 -15 3 -8 2 -15 -3 -15 -5 0 -14 7 -21 15 -7 8 -15 14 -19 14 -3 -1
-26 -5 -51 -9z"/>
<path d="M2672 3087 c-27 -15 -94 -112 -199 -288 l-76 -127 -121 -7 c-66 -4
-127 -12 -133 -17 -8 -6 -13 -34 -13 -69 0 -70 5 -74 108 -84 39 -4 72 -10 72
-14 -1 -3 -9 -31 -20 -61 -18 -50 -19 -85 -20 -385 0 -245 3 -334 12 -343 17
-17 369 -17 386 0 7 7 12 43 12 90 l0 78 615 0 615 0 0 -77 c0 -43 4 -84 8
-91 7 -9 53 -12 198 -10 l189 3 3 183 c1 103 -1 182 -7 182 -5 0 -14 -7 -21
-15 -19 -23 -40 -18 -40 11 0 14 -4 23 -10 19 -15 -9 -12 11 3 24 16 13 27 5
27 -21 0 -10 7 -18 15 -18 9 0 15 9 15 25 0 16 -6 25 -16 25 -14 0 -14 3 -4
15 18 22 28 18 33 -12 2 -16 4 42 5 127 1 112 -3 166 -13 195 -8 22 -15 45
-15 52 0 7 29 14 76 18 97 9 107 20 98 94 -3 31 -8 59 -10 62 -2 4 -59 10
-126 14 l-123 7 -49 86 c-97 172 -195 318 -221 330 -39 18 -1221 16 -1253 -1z
m1165 -104 c35 -20 66 -59 169 -213 89 -132 118 -180 112 -186 -3 -2 -65 0
-139 6 -74 5 -183 10 -244 10 -60 0 -105 4 -100 8 6 5 44 19 85 31 138 42 175
55 189 67 33 29 -28 46 -86 23 -15 -6 -41 -15 -58 -20 -16 -4 -52 -15 -80 -23
-261 -77 -243 -74 -498 -78 -130 -2 -234 -1 -230 3 5 3 67 24 138 45 127 37
145 46 145 72 0 21 -45 14 -188 -29 -75 -22 -162 -47 -192 -56 -30 -8 -72 -21
-93 -29 -21 -8 -91 -19 -155 -24 -171 -14 -159 -18 -127 38 26 44 128 191 203
292 63 84 31 80 607 80 467 0 513 -1 542 -17z m-1072 -663 c71 -6 124 -15 131
-22 6 -7 14 -45 18 -84 8 -93 3 -97 -95 -84 -41 5 -124 14 -186 18 -64 5 -119
14 -128 22 -11 9 -15 32 -15 85 0 39 3 75 8 79 4 5 39 5 77 2 39 -4 124 -11
190 -16z m1311 -4 c3 -14 2 -53 -3 -88 l-8 -63 -45 -7 c-126 -20 -346 -35
-359 -25 -18 15 -10 143 11 163 10 10 58 18 159 25 79 6 146 13 148 15 2 2 24
4 47 4 38 0 44 -3 50 -24z"/>
<path d="M5907 2814 c-4 -4 -7 -16 -7 -26 0 -23 -57 -25 -74 -2 -17 22 -48 7
-44 -21 4 -32 -29 -66 -57 -59 -31 8 -51 -19 -30 -40 22 -22 10 -64 -21 -72
-31 -8 -35 -54 -5 -54 28 0 40 -57 16 -74 -15 -10 -15 -16 -6 -34 9 -17 16
-20 30 -13 24 13 55 -22 47 -54 -4 -14 0 -28 9 -35 13 -10 19 -9 35 5 17 15
24 16 45 7 15 -7 25 -20 25 -32 0 -26 46 -28 55 -2 6 20 80 56 95 47 7 -5 5
-12 -7 -20 -22 -17 -12 -29 17 -20 18 6 20 12 15 33 -3 15 -13 37 -20 48 -14
21 -16 21 -57 7 -62 -21 -118 -10 -161 32 -61 59 -71 131 -27 203 62 101 216
97 271 -8 26 -47 24 -113 -3 -161 -17 -30 -19 -42 -10 -51 9 -9 17 -9 36 1 15
8 35 11 52 7 27 -7 28 -7 12 11 -22 25 -13 71 16 75 29 4 34 43 7 51 -28 7
-39 56 -17 73 24 17 5 55 -23 47 -28 -7 -64 32 -51 56 14 27 -14 50 -41 33
-27 -17 -67 -5 -71 21 -3 22 -37 35 -51 21z"/>
<path d="M5480 2291 c-20 -6 -25 -13 -25 -39 0 -26 -7 -36 -33 -52 -29 -18
-35 -19 -54 -6 -24 17 -44 11 -59 -16 -8 -15 -7 -24 7 -39 16 -18 16 -21 -2
-54 -14 -27 -25 -35 -46 -35 -29 0 -32 -3 -42 -41 -5 -23 -2 -27 24 -33 28 -5
30 -9 30 -51 0 -25 -4 -45 -8 -45 -5 0 -16 -6 -26 -13 -13 -10 -16 -20 -10
-41 6 -25 10 -27 40 -21 23 4 34 2 34 -6 0 -6 9 -23 20 -39 17 -24 18 -29 5
-40 -19 -16 -19 -34 1 -51 13 -11 14 -9 9 13 -4 14 -2 29 3 32 6 3 13 -7 17
-24 6 -26 9 -29 26 -19 31 16 93 -25 85 -57 -7 -25 -4 -28 36 -38 24 -5 28 -3
34 19 4 17 13 25 28 25 11 0 31 3 43 6 18 5 25 1 33 -20 17 -45 77 -28 72 21
-1 22 5 32 31 49 33 21 34 21 57 2 23 -19 24 -19 49 6 23 24 24 26 8 44 -21
23 -21 31 -1 70 13 27 19 31 41 26 28 -7 43 7 43 42 0 15 -8 24 -25 28 -22 6
-25 12 -25 51 0 36 4 47 23 56 12 6 23 13 25 14 1 1 -3 16 -9 33 -10 28 -13
30 -36 21 -14 -5 -27 -8 -28 -7 -1 2 -12 20 -24 41 -22 36 -23 39 -5 58 17 18
16 20 -6 44 -21 22 -25 23 -40 10 -35 -32 -100 -2 -100 45 0 45 -54 56 -70 15
-8 -22 -16 -25 -55 -25 -25 0 -45 4 -45 8 0 22 -26 39 -50 33z m232 -173 c109
-74 131 -233 45 -327 -49 -53 -95 -73 -169 -73 -62 0 -75 4 -117 32 -59 41
-88 83 -100 144 -21 113 55 237 160 259 59 13 131 -1 181 -35z"/>
<path d="M4940 2050 c-13 -24 -58 -27 -66 -5 -4 8 -17 15 -30 15 -20 0 -23 -4
-19 -23 5 -18 1 -26 -21 -35 -19 -9 -30 -10 -39 -2 -20 16 -48 -15 -34 -38 16
-26 -5 -75 -30 -67 -28 9 -38 -26 -12 -44 25 -16 28 -59 4 -76 -21 -15 -10
-45 16 -45 25 0 55 -40 41 -54 -24 -24 9 -58 35 -36 20 17 65 -8 65 -37 0 -26
34 -33 44 -8 7 20 63 19 74 -1 14 -26 54 -9 46 20 -7 28 39 54 62 35 20 -16
48 19 32 39 -15 18 6 62 31 62 17 0 31 18 31 40 0 4 -9 10 -20 13 -25 6 -27
54 -3 72 20 15 11 45 -15 45 -10 0 -27 9 -37 20 -15 16 -16 22 -5 35 11 13 11
19 -3 32 -13 13 -19 14 -31 4 -20 -16 -54 1 -66 35 -11 29 -35 31 -50 4z m59
-98 c52 -38 73 -82 69 -140 -4 -43 -11 -59 -37 -86 -42 -43 -106 -63 -153 -47
-136 45 -144 227 -13 287 38 18 100 11 134 -14z"/>
<path d="M3044 1346 c-3 -7 -4 -33 -2 -57 l3 -44 185 0 185 0 0 55 0 55 -183
3 c-149 2 -183 0 -188 -12z"/>
<path d="M3550 1300 l0 -60 182 2 182 3 4 34 c2 19 1 44 -2 57 l-6 24 -180 0
-180 0 0 -60z"/>
<path d="M4050 1300 l0 -60 183 2 182 3 0 55 0 55 -182 3 -183 2 0 -60z"/>
<path d="M4550 1300 l0 -60 63 0 c35 0 67 4 73 9 5 5 27 6 49 2 36 -6 42 -4
57 21 25 40 72 39 93 -2 9 -17 20 -28 25 -25 10 6 3 31 -12 52 -5 6 -8 22 -6
35 l3 23 -172 3 -173 2 0 -60z"/>
<path d="M2790 1105 l0 -55 185 0 185 0 0 55 0 55 -185 0 -185 0 0 -55z"/>
<path d="M3297 1154 c-4 -4 -7 -29 -7 -56 l0 -48 191 0 190 0 -3 53 -3 52
-181 3 c-99 1 -183 -1 -187 -4z"/>
<path d="M3795 1150 c-3 -5 -5 -30 -4 -55 l3 -45 188 0 188 0 0 55 0 55 -184
0 c-110 0 -187 -4 -191 -10z"/>
<path d="M4297 1153 c-4 -3 -7 -28 -7 -55 l0 -48 152 0 c151 0 151 0 133 20
-28 31 -8 37 23 7 27 -26 72 -37 72 -17 0 5 -13 25 -30 43 -34 39 -29 58 7 25
23 -21 23 -21 23 -1 0 12 -7 24 -16 27 -21 8 -349 8 -357 -1z"/>
<path d="M4827 1139 c-3 -12 -10 -18 -16 -14 -7 4 -11 -8 -11 -34 l0 -41 185
0 185 0 0 55 0 55 -169 0 c-163 0 -169 -1 -174 -21z"/>
<path d="M3040 905 l0 -55 191 0 190 0 -3 53 -3 52 -187 3 -188 2 0 -55z"/>
<path d="M3548 905 l-3 -55 186 0 186 0 -1 53 -1 52 -182 3 -181 2 -4 -55z"/>
<path d="M4050 905 l0 -55 186 0 186 0 -6 23 c-3 12 -6 37 -6 55 l0 32 -180 0
-180 0 0 -55z"/>
<path d="M4565 940 c16 -18 14 -25 -7 -21 -5 0 -8 -15 -8 -34 l0 -35 185 0
185 0 0 55 0 55 -187 0 c-185 0 -186 0 -168 -20z"/>
</g>
</svg>
